<svg width="32" height="32" viewBox="0 0 32 32" fill="none" xmlns="http://www.w3.org/2000/svg">
<rect width="32" height="32" rx="2.28571" fill="#111111"/>
<path fill-rule="evenodd" clip-rule="evenodd" d="M14.3099 18.5142V8.91423V7.23804H12.6548H9.0438C8.04664 7.23804 7.23828 8.05672 7.23828 9.06661V18.5142C7.23828 21.9647 10.0002 24.7618 13.4071 24.7618H13.5576C14.4995 24.7618 15.3921 24.5481 16.1907 24.1658C16.9892 24.5481 17.8818 24.7618 18.8237 24.7618H18.9742C22.3811 24.7618 25.143 21.9647 25.143 18.5142V9.06661C25.143 8.05672 24.3347 7.23804 23.3375 7.23804H19.7265H18.0714V8.91423V18.5142C18.0714 20.0438 17.3297 21.3979 16.1907 22.2277C15.0516 21.3979 14.3099 20.0438 14.3099 18.5142ZM19.7265 18.5142V8.91423H23.3375C23.4206 8.91423 23.488 8.98245 23.488 9.06661V18.5142C23.488 21.039 21.4671 23.0857 18.9742 23.0857H18.8237C18.496 23.0857 18.1764 23.0503 17.8686 22.9831C19.0149 21.8487 19.7265 20.2656 19.7265 18.5142ZM12.6548 18.5142C12.6548 20.2656 13.3664 21.8487 14.5128 22.9831C14.2049 23.0503 13.8853 23.0857 13.5576 23.0857H13.4071C10.9142 23.0857 8.89334 21.039 8.89334 18.5142V9.06661C8.89334 8.98245 8.96071 8.91423 9.0438 8.91423H12.6548V18.5142Z" fill="white"/>
</svg>
